<svg width="48" height="48" viewBox="0 0 48 48" fill="none" xmlns="http://www.w3.org/2000/svg">
<rect width="47.8543" height="48" rx="23.9271" fill="white"/>
<path d="M3.92712 19C3.92712 16.24 6.16712 14 8.92712 14H13.9271V24H8.92712C6.16712 24 3.92712 21.76 3.92712 19Z" fill="#F24E1E"/>
<path d="M13.9271 14H18.9271C21.6871 14 23.9271 16.24 23.9271 19C23.9271 21.76 21.6871 24 18.9271 24H13.9271V14Z" fill="#FF7262"/>
<path d="M23.9271 19C23.9271 16.24 26.1671 14 28.9271 14H33.9271V24H28.9271C26.1671 24 23.9271 21.76 23.9271 19Z" fill="#A259FF"/>
<path d="M43.9271 19C43.9271 21.76 41.6871 24 38.9271 24C36.1671 24 33.9271 21.76 33.9271 19C33.9271 16.24 36.1671 14 38.9271 14C41.6871 14 43.9271 16.24 43.9271 19Z" fill="#1ABCFE"/>
<path d="M23.9271 34C26.6871 34 28.9271 31.76 28.9271 29V24H23.9271C21.1671 24 18.9271 26.24 18.9271 29C18.9271 31.76 21.1671 34 23.9271 34Z" fill="#0ACF83"/>
</svg>
