<svg width="32" height="32" viewBox="0 0 32 32" fill="none" xmlns="http://www.w3.org/2000/svg">
<path d="M16 0.5C7.16 0.5 0 7.61169 0 16.3921C0 23.4243 4.58 29.3639 10.94 31.4696C11.74 31.6087 12.04 31.1319 12.04 30.7148C12.04 30.3373 12.02 29.0858 12.02 27.7549C8 28.4899 6.96 26.7815 6.64 25.8876C6.46 25.4307 5.68 24.0202 5 23.6428C4.44 23.3448 3.64 22.6098 4.98 22.59C6.24 22.5701 7.14 23.7421 7.44 24.2189C8.88 26.6226 11.18 25.9472 12.1 25.53C12.24 24.497 12.66 23.8017 13.12 23.4044C9.56 23.0071 5.84 21.6364 5.84 15.5577C5.84 13.8295 6.46 12.3992 7.48 11.2867C7.32 10.8894 6.76 9.2605 7.64 7.07534C7.64 7.07534 8.98 6.65817 12.04 8.70427C13.32 8.3467 14.68 8.16792 16.04 8.16792C17.4 8.16792 18.76 8.3467 20.04 8.70427C23.1 6.63831 24.44 7.07534 24.44 7.07534C25.32 9.2605 24.76 10.8894 24.6 11.2867C25.62 12.3992 26.24 13.8096 26.24 15.5577C26.24 21.6563 22.5 23.0071 18.94 23.4044C19.52 23.901 20.02 24.8546 20.02 26.3445C20.02 28.47 20 30.1784 20 30.7148C20 31.1319 20.3 31.6286 21.1 31.4696C27.6129 29.2858 31.9982 23.2197 32 16.3921C32 7.61169 24.84 0.5 16 0.5Z" fill="#1F1F1F"/>
</svg>
