<svg width="49" height="48" viewBox="0 0 49 48" fill="none" xmlns="http://www.w3.org/2000/svg">
<path d="M48.2166 24C48.2166 37.2548 37.4714 48 24.2166 48C10.9617 48 0.216553 37.2548 0.216553 24C0.216553 10.7452 10.9617 0 24.2166 0C37.4714 0 48.2166 10.7452 48.2166 24Z" fill="#20232A"/>
<path d="M26.9872 24C26.9872 25.5456 25.7141 26.7986 24.1437 26.7986C22.5733 26.7986 21.3002 25.5456 21.3002 24C21.3002 22.4544 22.5733 21.2014 24.1437 21.2014C25.7141 21.2014 26.9872 22.4544 26.9872 24Z" fill="#61DAFB"/>
<path fill-rule="evenodd" clip-rule="evenodd" d="M19.1964 17.8829C20.7551 17.6877 22.4182 17.5837 24.1437 17.5837C25.8692 17.5837 27.5323 17.6877 29.0909 17.8829L29.9305 17.9984L30.7478 18.1315L31.5413 18.2818C36.619 19.3138 40.0951 21.4072 40.0951 24C40.0951 25.795 38.429 27.3507 35.7189 28.4805L35.0997 28.7245C32.2384 29.7902 28.379 30.4163 24.1437 30.4163C19.9084 30.4163 16.049 29.7902 13.1876 28.7245L12.5684 28.4805C9.85832 27.3507 8.19226 25.795 8.19226 24C8.19226 21.4072 11.6684 19.3138 16.746 18.2818L17.5396 18.1315L18.3569 17.9984L19.1964 17.8829ZM26.8165 19.0395C25.9505 18.9802 25.0572 18.9489 24.1437 18.9489C23.2302 18.9489 22.3369 18.9802 21.4709 19.0395L20.6143 19.1079C20.4731 19.1209 20.3328 19.1345 20.1933 19.1489L19.3669 19.244C19.231 19.2613 19.096 19.2793 18.962 19.2979L18.1695 19.418C13.0964 20.2502 9.57934 22.0793 9.57934 24C9.57934 25.379 11.3922 26.7107 14.2922 27.6603L14.93 27.8578C15.8019 28.113 16.7584 28.335 17.7824 28.5161L18.5628 28.6441L19.3669 28.756C20.8621 28.946 22.469 29.0511 24.1437 29.0511C25.8184 29.0511 27.4253 28.946 28.9204 28.756L29.7246 28.6441L30.505 28.5161C31.529 28.335 32.4854 28.113 33.3573 27.8578L33.9951 27.6603C36.8952 26.7107 38.708 25.379 38.708 24C38.708 22.0793 35.191 20.2502 30.1179 19.418L29.3254 19.2979C29.1913 19.2793 29.0563 19.2613 28.9204 19.244L28.0941 19.1489C27.9546 19.1345 27.8142 19.1209 27.6731 19.1079L26.8165 19.0395Z" fill="#61DAFB"/>
<path fill-rule="evenodd" clip-rule="evenodd" d="M27.0527 16.7247C28.0038 17.9556 28.9268 19.3211 29.7895 20.7919C30.6523 22.2626 31.3924 23.7321 31.9999 25.1582L32.3181 25.9315L32.6096 26.6947L32.8741 27.4462C34.5048 32.2902 34.4009 36.2997 32.1194 37.5961C30.5399 38.4936 28.338 37.8514 25.9888 36.1063L25.4645 35.7006C23.0961 33.7945 20.6155 30.8181 18.4978 27.2081C16.3802 23.5982 15.0014 19.9957 14.5085 17.0239L14.4136 16.3742C14.0527 13.4993 14.5885 11.3014 16.168 10.4039C18.4494 9.10751 22.0295 11.0237 25.4765 14.8355L26.0055 15.4368L26.5313 16.0668L27.0527 16.7247ZM29.845 23.7978C29.4642 23.0301 29.045 22.253 28.5883 21.4744C28.1316 20.6959 27.6574 19.9501 27.1722 19.2416L26.6837 18.5457L26.4371 18.2074L25.9402 17.5506L25.6903 17.2324L25.1884 16.6169C21.9196 12.709 18.5516 10.6258 16.8615 11.5862C15.6481 12.2757 15.3827 14.4867 15.9972 17.4333L16.1423 18.0757C16.3537 18.9464 16.6365 19.8727 16.9892 20.836L17.2668 21.5652L17.5704 22.3066C18.1508 23.6759 18.8617 25.0981 19.6991 26.5256C20.5364 27.953 21.4324 29.27 22.3471 30.4494L22.8477 31.0789L23.3505 31.6801C24.0219 32.4623 24.6955 33.1665 25.356 33.782L25.8487 34.2269C28.1342 36.224 30.2124 37.1033 31.4258 36.4138C33.116 35.4534 32.9669 31.5412 31.1626 26.801L30.872 26.0655L30.717 25.6934L30.3875 24.9416C30.3304 24.8155 30.2723 24.689 30.2131 24.5622L29.845 23.7978Z" fill="#61DAFB"/>
<path fill-rule="evenodd" clip-rule="evenodd" d="M31.9999 22.8418C31.3924 24.2679 30.6523 25.7374 29.7895 27.2081C28.9268 28.6789 28.0038 30.0444 27.0527 31.2753L26.5313 31.9332L26.0055 32.5632L25.4765 33.1645C22.0295 36.9763 18.4494 38.8925 16.168 37.5961C14.5885 36.6986 14.0527 34.5007 14.4136 31.6258L14.5085 30.9761C15.0014 28.0043 16.3802 24.4018 18.4978 20.7919C20.6155 17.1819 23.0961 14.2055 25.4645 12.2994L25.9888 11.8937C28.338 10.1486 30.5399 9.50641 32.1194 10.4039C34.4009 11.7003 34.5048 15.7098 32.8741 20.5538L32.6096 21.3053L32.3181 22.0685L31.9999 22.8418ZM27.1722 28.7584C27.6574 28.0499 28.1316 27.3041 28.5883 26.5256C29.045 25.747 29.4642 24.9699 29.845 24.2022L30.2131 23.4378L30.3875 23.0584L30.717 22.3066L30.872 21.9345L31.1626 21.199C32.9669 16.4588 33.116 12.5466 31.4258 11.5862C30.2124 10.8967 28.1342 11.776 25.8487 13.7731L25.356 14.218C24.6955 14.8335 24.0219 15.5377 23.3505 16.3199L22.8477 16.9211L22.3471 17.5506C21.4324 18.73 20.5364 20.047 19.6991 21.4744C18.8617 22.9019 18.1508 24.3241 17.5704 25.6934L17.2668 26.4348L16.9892 27.164C16.6365 28.1273 16.3537 29.0536 16.1423 29.9243L15.9972 30.5667C15.3827 33.5133 15.6481 35.7243 16.8615 36.4138C18.5516 37.3742 21.9196 35.291 25.1884 31.3831L25.6903 30.7676L25.9402 30.4494L26.4371 29.7926L26.6837 29.4543L27.1722 28.7584Z" fill="#61DAFB"/>
</svg>
