<svg width="33" height="32" viewBox="0 0 33 32" fill="none" xmlns="http://www.w3.org/2000/svg">
<path fill-rule="evenodd" clip-rule="evenodd" d="M2.7604 23.7833L0.5 32L8.94663 29.7954C11.2827 31.0619 13.9003 31.7255 16.5603 31.7257H16.5671C25.3482 31.7257 32.4963 24.6112 32.5 15.8687C32.5017 11.6607 30.8238 7.62439 27.8356 4.64825C24.8474 1.67211 20.7937 1.98263e-05 16.5668 0C7.78416 0 0.637278 7.11298 0.633764 15.8559C0.630347 18.6386 1.36387 21.3729 2.7604 23.7833ZM9.82172 27.21L9.33792 26.9245L4.32577 28.2327L5.66379 23.3694L5.34852 22.8708C4.02227 20.7699 3.32041 18.3382 3.3241 15.8569C3.327 8.59015 9.26741 2.67827 16.5721 2.67827C23.8859 2.68121 29.8126 8.58616 29.8097 15.8674C29.8067 23.1347 23.8661 29.0473 16.5671 29.0473H16.562C14.1904 29.0475 11.8624 28.4129 9.82172 27.21Z" fill="url(#paint0_linear_35_604)"/>
<path d="M12.585 9.22721C12.2871 8.56722 11.9728 8.55399 11.6891 8.54273C11.457 8.53285 11.1914 8.53345 10.9262 8.53345C10.5183 8.54406 10.1333 8.72382 9.86433 9.02932C9.4994 9.42593 8.47076 10.3847 8.47076 12.3346C8.47076 14.2845 9.89748 16.1689 10.0964 16.4338C10.2953 16.6987 12.8505 20.8274 16.897 22.4161C20.2599 23.7363 20.9442 23.4737 21.6742 23.4077C22.4043 23.3417 24.0295 22.4494 24.3614 21.5236C24.6932 20.5978 24.6931 19.8048 24.5936 19.6394C24.4941 19.4739 24.2286 19.3751 23.8304 19.177C23.4323 18.9788 21.4752 18.0198 21.1102 17.8876C20.7451 17.7555 20.4798 17.6894 20.2143 18.0863C19.9488 18.4831 19.1863 19.3751 18.9538 19.6394C18.7213 19.9036 18.4893 19.9372 18.0911 19.7391C17.6929 19.5409 16.4105 19.1222 14.8897 17.772C13.7062 16.7216 12.9072 15.4243 12.675 15.0275C12.4427 14.6307 12.6501 14.4164 12.8498 14.2188C13.0285 14.0413 13.2479 13.7562 13.447 13.5248C13.6461 13.2934 13.712 13.1282 13.8448 12.8639C13.9776 12.5996 13.9111 12.3678 13.8116 12.1696C13.712 11.9714 12.9389 10.0109 12.585 9.22721Z" fill="url(#paint1_linear_35_604)"/>
<defs>
<linearGradient id="paint0_linear_35_604" x1="32.5" y1="32" x2="32.5" y2="0" gradientUnits="userSpaceOnUse">
<stop stop-color="#20B038"/>
<stop offset="1" stop-color="#60D66A"/>
</linearGradient>
<linearGradient id="paint1_linear_35_604" x1="24.6516" y1="23.4733" x2="24.6516" y2="8.53345" gradientUnits="userSpaceOnUse">
<stop stop-color="#20B038"/>
<stop offset="1" stop-color="#60D66A"/>
</linearGradient>
</defs>
</svg>
