<svg width="49" height="48" viewBox="0 0 49 48" fill="none" xmlns="http://www.w3.org/2000/svg">
<path d="M48.6235 24C48.6235 37.2548 37.8783 48 24.6235 48C11.3686 48 0.623474 37.2548 0.623474 24C0.623474 10.7452 11.3686 0 24.6235 0C37.8783 0 48.6235 10.7452 48.6235 24Z" fill="#470137"/>
<path d="M26.0935 15.7819L21.0042 24.3205L26.4488 33.3885C26.4836 33.4519 26.4932 33.5265 26.4756 33.5969C26.4568 33.6624 26.3942 33.6205 26.2841 33.6396H22.4029C22.13 33.6396 21.9376 33.6296 21.8284 33.444C21.4633 32.7211 21.0984 32.0024 20.7339 31.288C20.3694 30.5736 19.9816 29.8458 19.5705 29.1047C19.1595 28.363 18.7535 27.6118 18.3526 26.8513H18.3257C17.9606 27.593 17.582 28.3348 17.1901 29.0765C16.7981 29.8182 16.4103 30.5551 16.0267 31.2871C15.6437 32.0197 15.2517 32.7475 14.8508 33.4704C14.7774 33.6378 14.6494 33.6524 14.4669 33.6524H10.719C10.6465 33.6524 10.6053 33.6815 10.5964 33.6078C10.586 33.54 10.6007 33.4706 10.6375 33.4131L15.9175 24.5961L10.7691 15.7509C10.7136 15.6772 10.7047 15.6172 10.7423 15.569C10.783 15.521 10.8438 15.4953 10.906 15.4998H14.7631C14.8474 15.4946 14.9318 15.5086 15.0101 15.5408C15.0753 15.5789 15.1313 15.6314 15.1738 15.6945C15.5026 16.4362 15.8677 17.178 16.2692 17.9197C16.6707 18.6614 17.0764 19.3937 17.4863 20.1167C17.8967 20.8396 18.2753 21.5719 18.6219 22.3136H18.6488C19.0133 21.5537 19.3826 20.812 19.7567 20.0885C20.1307 19.3649 20.5138 18.6372 20.9057 17.9051C21.2983 17.1731 21.6768 16.4453 22.0414 15.7218C22.0626 15.6528 22.1004 15.5902 22.1514 15.5399C22.2189 15.5052 22.2947 15.491 22.3698 15.4989H25.9494C25.9898 15.4888 26.0324 15.4953 26.068 15.5172C26.1036 15.539 26.1292 15.5743 26.1391 15.6154C26.1541 15.6752 26.1335 15.7384 26.0863 15.7773L26.0935 15.7819Z" fill="#FF61F6"/>
<path fill-rule="evenodd" clip-rule="evenodd" d="M30.2942 33.2203C31.4398 33.7526 32.6877 34.0186 33.9472 33.999C34.8295 33.9954 35.7098 33.9114 36.5773 33.7479C37.5251 33.5705 38.4515 33.2909 39.3408 32.9137C39.4464 32.8639 39.5114 32.7535 39.5046 32.6353C39.4861 32.3381 39.4631 32.0046 39.4357 31.6346C39.4082 31.2647 39.3945 30.9217 39.3945 30.6057V14.168C39.3967 14.1545 39.3967 14.1407 39.3945 14.1271C39.3892 14.0882 39.3688 14.053 39.3379 14.0295C39.307 14.0059 39.2681 13.9959 39.2299 14.0016H35.7827C35.6726 14.0016 35.618 14.0671 35.618 14.1962V19.6809C35.4166 19.6627 35.2457 19.6482 35.0981 19.6391C34.9504 19.63 34.8296 19.6245 34.7401 19.6245C33.2477 19.5797 31.7688 19.9242 30.4445 20.6252C29.3128 21.2389 28.374 22.1643 27.7357 23.2952C27.1164 24.4041 26.7954 25.6591 26.8049 26.9341C26.7551 28.3078 27.077 29.669 27.7357 30.8696C28.3346 31.8985 29.2268 32.7183 30.2942 33.2203ZM35.6162 22.9577V30.5502H35.6144C35.4219 30.6083 35.224 30.6458 35.0238 30.6621C34.8042 30.6809 34.5671 30.6903 34.3123 30.6903C33.8338 30.6929 33.358 30.6177 32.9029 30.4675C32.472 30.3296 32.0786 30.0916 31.7538 29.7724C31.4145 29.4255 31.1529 29.0081 30.9869 28.5489C30.7837 27.9786 30.6863 27.3749 30.6996 26.7685C30.6634 25.9954 30.8591 25.2292 31.2607 24.5716C31.6211 24.0265 32.1145 23.5858 32.6925 23.2925C33.2876 22.9931 33.9437 22.8404 34.6077 22.8468C34.7956 22.8461 34.9826 22.8552 35.1688 22.874C35.32 22.889 35.4697 22.917 35.6162 22.9577Z" fill="#FF61F6"/>
</svg>
