<svg width="32" height="23" viewBox="0 0 32 23" fill="none" xmlns="http://www.w3.org/2000/svg">
<path fill-rule="evenodd" clip-rule="evenodd" d="M28.4673 1.16484C29.8434 1.52747 30.932 2.59524 31.3017 3.94506C31.9795 6.40293 32 11.5 32 11.5C32 11.5 32 16.6172 31.3222 19.0549C30.9525 20.4048 29.8639 21.4725 28.4878 21.8352C26.0026 22.5 16 22.5 16 22.5C16 22.5 5.99743 22.5 3.5122 21.8352C2.13607 21.4725 1.0475 20.4048 0.677792 19.0549C0 16.5971 0 11.5 0 11.5C0 11.5 0 6.40293 0.657253 3.9652C1.02696 2.61538 2.11553 1.54762 3.49166 1.18498C5.97689 0.520147 15.9795 0.5 15.9795 0.5C15.9795 0.5 25.982 0.5 28.4673 1.16484ZM21.0937 11.5L12.7959 16.2143V6.78571L21.0937 11.5Z" fill="#FF0000"/>
</svg>
